<svg width="24" height="24" viewBox="0 0 24 24" fill="none" xmlns="http://www.w3.org/2000/svg">
                                <path d="M17.657 14.827L16.243 13.413L17.657 11.999C18.0285 11.6276 18.3231 11.1866 18.5241 10.7013C18.7252 10.216 18.8286 9.69583 18.8286 9.17053C18.8286 8.64523 18.7252 8.12507 18.5241 7.63975C18.3231 7.15444 18.0285 6.71347 17.657 6.34203C17.2856 5.97058 16.8446 5.67594 16.3593 5.47491C15.874 5.27389 15.3538 5.17042 14.8285 5.17042C14.3032 5.17042 13.7831 5.27389 13.2977 5.47491C12.8124 5.67594 12.3715 5.97058 12 6.34203L10.586 7.75603L9.17201 6.34203L10.586 4.92803C11.7143 3.81795 13.2356 3.19868 14.8184 3.20513C16.4012 3.21157 17.9174 3.8432 19.0366 4.96244C20.1558 6.08167 20.7875 7.59783 20.7939 9.18065C20.8004 10.7635 20.1811 12.2847 19.071 13.413L17.657 14.827ZM14.828 17.656L13.414 19.07C12.8585 19.6346 12.1968 20.0837 11.4669 20.3912C10.737 20.6988 9.95343 20.8588 9.16139 20.862C8.36936 20.8653 7.58452 20.7116 6.85215 20.41C6.11979 20.1084 5.45438 19.6648 4.89432 19.1047C4.33426 18.5447 3.89063 17.8793 3.58902 17.1469C3.28741 16.4145 3.13379 15.6297 3.13701 14.8376C3.14024 14.0456 3.30025 13.262 3.60781 12.5322C3.91538 11.8023 4.36441 11.1405 4.92901 10.585L6.34301 9.17103L7.75701 10.585L6.34301 11.999C5.97157 12.3705 5.67692 12.8114 5.4759 13.2968C5.27488 13.7821 5.17141 14.3022 5.17141 14.8275C5.17141 15.3528 5.27488 15.873 5.4759 16.3583C5.67692 16.8436 5.97157 17.2846 6.34301 17.656C6.71446 18.0275 7.15543 18.3221 7.64074 18.5231C8.12605 18.7242 8.64621 18.8276 9.17151 18.8276C9.69681 18.8276 10.217 18.7242 10.7023 18.5231C11.1876 18.3221 11.6286 18.0275 12 17.656L13.414 16.242L14.828 17.656ZM14.828 7.75603L16.243 9.17103L9.17201 16.241L7.75701 14.827L14.828 7.75703V7.75603Z" fill="black" fill-opacity="0.6"></path>
                            </svg>